# This file uses centimeters as units for non-parametric coordinates.

mtllib waterlelies.mtl
g default
v -0.195252 0.056494 0.067375
v 0.758073 -0.059851 0.346005
v -0.074109 1.049129 0.067375
v 0.879216 0.932784 0.346005
v -0.378433 0.025236 0.238101
v 0.392780 -0.030366 -0.396042
v -0.392780 1.019643 0.133463
v 0.378433 0.964041 -0.500680
v -0.515964 -0.000000 0.310655
v 0.484036 -0.000000 0.310655
v -0.515964 0.000000 -0.689345
v 0.484036 0.000000 -0.689345
v -0.152203 0.065482 0.513338
v 0.799305 -0.028256 0.806333
v 0.139380 0.036756 -0.442776
v 1.090888 -0.056981 -0.149781
vt 0.023449 0.944519
vt 0.023449 0.517970
vt 0.449998 0.517970
vt 0.449998 0.944519
vt 0.024843 0.075909
vt 0.442306 0.075909
vt 0.442306 0.493371
vt 0.024843 0.493371
vt 0.505282 0.072073
vt 0.927059 0.072073
vt 0.927059 0.493850
vt 0.505282 0.493850
vt 0.503564 0.530719
vt 0.919209 0.530719
vt 0.919209 0.946364
vt 0.503564 0.946364
vn -0.276578 0.033754 0.960398
vn -0.276578 0.033754 0.960398
vn -0.276578 0.033754 0.960398
vn -0.276578 0.033754 0.960398
vn 0.636415 0.089797 0.766102
vn 0.636415 0.089797 0.766102
vn 0.636415 0.089797 0.766102
vn 0.636415 0.089797 0.766102
vn 0.000000 1.000000 0.000000
vn 0.000000 1.000000 0.000000
vn 0.000000 1.000000 0.000000
vn 0.000000 1.000000 0.000000
vn 0.098040 0.995183 0.000000
vn 0.098040 0.995182 0.000000
vn 0.098040 0.995183 0.000000
vn 0.098040 0.995182 0.000000
s off
g pPlane5
usemtl initialShadingGroup
f 1/9/1 2/10/2 4/11/3 3/12/4
f 5/13/5 6/14/6 8/15/7 7/16/8
f 9/1/9 10/2/10 12/3/11 11/4/12
f 13/5/13 14/6/14 16/7/15 15/8/16
